# xmcd
#
# Track frame offsets:
#	150
#	13171
#	27702
#	40605
#	58663
#	68541
#	89122
#	117532
#	127876
#	143657
#	152170
#	165873
#
# Disc length: 2417
#
# Revision: 1
# Processed by: cddbd v1.5.1PL0 Copyright (c) Steve Scherf et al.
# Submitted via: ExactAudioCopy v0.95a3
# Normalized: r0:TRMNUM
#
DISCID=9d096f0c
DTITLE=Ray Charles - Ray Charles
DYEAR=1900
DGENRE=Soul
TTITLE0=Crying Time
TTITLE1=No Use Crying
TTITLE2=Let's Go Get Stoned
TTITLE3=Going Down Slow
TTITLE4=Peace of Mind
TTITLE5=Tears
TTITLE6=Drifting Blues
TTITLE7=We Don't See Eye to Eye
TTITLE8=You're In for a Big Surprise
TTITLE9=You're About To Lose Your Clown
TTITLE10=Don't You Think I Ought To Know
TTITLE11=You've Got A Problem
EXTD=
EXTT0=
EXTT1=
EXTT2=
EXTT3=
EXTT4=
EXTT5=
EXTT6=
EXTT7=
EXTT8=
EXTT9=
EXTT10=
EXTT11=
PLAYORDER=
